<svg width="50" height="50" viewBox="0 0 50 50" fill="none" xmlns="http://www.w3.org/2000/svg">
<path d="M6.00002 19.3421C5.99316 17.1076 7.80364 15.2911 10.0437 15.2845L39.8577 15.1986C42.0978 15.1921 43.9192 16.9984 43.9257 19.2329L44 44.2436C44.0065 46.4781 42.196 48.2947 39.9563 48.3012L10.142 48.3871C7.90223 48.3936 6.08082 46.5873 6.07427 44.3528L6.00002 19.3421Z" fill="#FFCB44"/>
<path d="M39.3082 15.1602C39.3082 22.981 32.9105 29.3208 25.0184 29.3208C17.1262 29.3208 10.7285 22.981 10.7285 15.1602C10.7285 7.33973 17.1262 1 25.0184 1C32.9105 1 39.3082 7.33973 39.3082 15.1602Z" fill="#FFCB44"/>
<path d="M39.3084 15.16C39.3084 22.9808 32.9107 29.3206 25.0186 29.3206H39.3084V15.16Z" fill="#FFCB44"/>
<path d="M25.0184 29.3206C17.1262 29.3206 10.7285 22.9808 10.7285 15.16V29.3206H25.0184Z" fill="#FFCB44"/>
<path d="M25.1889 23.3417C30.0827 23.3417 34.0189 19.399 33.9806 14.5354C33.9424 9.67175 29.9442 5.729 25.0504 5.729C20.1566 5.729 16.2204 9.67175 16.2587 14.5354C16.2969 19.399 20.2951 23.3417 25.1889 23.3417Z" fill="#242424"/>
<path d="M27.3213 15.9751C27.3213 14.6692 26.2601 13.6106 24.9509 13.6106C23.6418 13.6106 22.5806 14.6692 22.5806 15.9751V41.196C22.5806 42.5019 23.6418 43.5605 24.9509 43.5605C26.2601 43.5605 27.3213 42.5019 27.3213 41.196V15.9751Z" fill="#242424"/>
<path d="M30.4396 31.7383H24.993C24.097 31.7383 23.3706 32.4628 23.3706 33.3566V34.0607C23.3706 34.9545 24.097 35.679 24.993 35.679H30.4396C31.3356 35.679 32.062 34.9545 32.062 34.0607V33.3566C32.062 32.4628 31.3356 31.7383 30.4396 31.7383Z" fill="#242424"/>
<path d="M30.4396 39.6198H24.993C24.097 39.6198 23.3706 40.3443 23.3706 41.2381V41.9422C23.3706 42.836 24.097 43.5605 24.993 43.5605H30.4396C31.3356 43.5605 32.062 42.836 32.062 41.9422V41.2381C32.062 40.3443 31.3356 39.6198 30.4396 39.6198Z" fill="#242424"/>
<path d="M25.1649 15.1552C26.9104 15.1552 28.3171 13.7443 28.3068 12.0038C28.2966 10.2633 26.8733 8.85229 25.1278 8.85229C23.3823 8.85229 21.9756 10.2633 21.9858 12.0038C21.9961 13.7443 23.4194 15.1552 25.1649 15.1552Z" fill="#FFCB44"/>
</svg>
