<svg width="50" height="50" viewBox="0 0 50 50" fill="none" xmlns="http://www.w3.org/2000/svg">
<g clip-path="url(#clip0_222_39)">
<path d="M35.6514 20.4597L29.374 16.8355C28.3413 16.2393 27.9863 14.9208 28.581 13.8907L29.0495 13.0792C29.6443 12.0491 30.9636 11.6974 31.9963 12.2936L38.2737 15.9179C39.3064 16.5141 39.6614 17.8325 39.0667 18.8626L38.5982 19.6741C38.0034 20.7042 36.6841 21.056 35.6514 20.4597Z" fill="#FFBA44"/>
<path d="M40.8959 11.376L34.6185 7.75177C33.5858 7.15554 33.2308 5.83712 33.8255 4.80699L34.294 3.99551C34.8888 2.96539 36.2081 2.61365 37.2408 3.20988L43.5182 6.83414C44.5509 7.43037 44.9059 8.74879 44.3112 9.77891L43.8427 10.5904C43.2479 11.6205 41.9286 11.9723 40.8959 11.376Z" fill="#FFBA44"/>
<path d="M26.2991 28.3585C30.1107 32.0181 31.0726 37.902 28.2854 42.643C25.005 48.2231 17.7734 50.1068 12.1331 46.8504C6.49287 43.594 4.57982 36.4306 7.86023 30.8505C10.5329 26.3043 15.8282 24.2117 20.7489 25.3533L16.1044 33.3978C15.7134 34.0751 15.6033 34.8377 15.7381 35.551C14.5394 35.7472 13.4347 36.4542 12.7763 37.5792C11.6063 39.5784 12.2887 42.1406 14.3004 43.3021C16.3122 44.4636 18.8915 43.7845 20.0615 41.7853C20.8 40.5233 20.8004 39.0368 20.1942 37.82C20.7515 37.5562 21.2369 37.1264 21.5683 36.5524L26.2991 28.3585Z" fill="#FFBA44"/>
<path fill-rule="evenodd" clip-rule="evenodd" d="M20.1942 37.82C20.7515 37.5562 21.2369 37.1264 21.5683 36.5524L26.2991 28.3585L38.3508 7.48431C39.2197 5.97926 38.701 4.053 37.1922 3.18189C35.6834 2.31077 33.7558 2.82468 32.8869 4.32973L20.7489 25.3533L16.1044 33.3978C15.7134 34.0751 15.6033 34.8377 15.7381 35.551C16.6695 35.3986 17.6576 35.5545 18.5373 36.0624C19.279 36.4907 19.8401 37.1094 20.1942 37.82Z" fill="#FFBA44"/>
</g>
<defs>
<clipPath id="clip0_222_39">
<rect width="50" height="50" fill="white"/>
</clipPath>
</defs>
</svg>
